<?xml version="1.0" standalone="no"?>
<!DOCTYPE svg PUBLIC "-//W3C//DTD SVG 20010904//EN"
 "http://www.w3.org/TR/2001/REC-SVG-20010904/DTD/svg10.dtd">
<svg version="1.0" xmlns="http://www.w3.org/2000/svg"
 width="1024.000000pt" height="1024.000000pt" viewBox="0 0 1024.000000 1024.000000"
 preserveAspectRatio="xMidYMid meet">

<g transform="translate(0.000000,1024.000000) scale(0.100000,-0.100000)"
fill="#000000" stroke="none">
<path d="M4255 7894 c-732 -35 -1252 -147 -1606 -347 -136 -76 -203 -126 -312
-235 -207 -204 -387 -562 -531 -1056 l-23 -79 -79 -26 c-140 -47 -220 -112
-308 -249 -80 -123 -129 -259 -175 -476 -25 -121 -29 -129 -52 -133 -31 -4
-65 -43 -78 -91 -25 -88 -4 -178 53 -223 23 -18 26 -28 26 -84 0 -52 4 -69 23
-91 22 -25 29 -27 100 -26 l76 2 6 -58 c27 -247 54 -373 111 -513 19 -50 34
-93 32 -95 -3 -2 -33 -6 -68 -9 -111 -9 -104 -33 24 -94 98 -47 205 -81 481
-156 214 -58 697 -200 950 -280 518 -163 637 -200 695 -216 36 -11 106 -32
155 -49 50 -16 185 -59 302 -95 116 -35 267 -90 335 -121 346 -156 515 -200
860 -224 354 -24 681 -7 1423 75 639 71 993 128 1477 238 210 48 331 90 358
123 21 24 -9 42 -81 50 -33 4 -59 11 -59 15 0 5 4 9 9 9 22 0 141 80 198 133
110 104 188 240 227 399 22 90 23 92 57 100 74 18 206 61 241 79 98 50 146
146 133 268 -23 229 -61 322 -139 337 -30 5 -32 8 -54 106 -53 225 -128 411
-228 563 -91 139 -286 315 -427 387 -117 59 -368 128 -469 128 -44 0 -49 3
-89 53 -70 84 -80 94 -164 165 -112 96 -204 156 -320 212 -126 61 -323 132
-442 160 l-91 21 -25 62 c-162 400 -387 805 -524 940 -216 213 -542 319 -1171
383 -138 14 -680 26 -837 18z m720 -85 c384 -34 689 -88 890 -159 313 -111
465 -266 683 -696 64 -127 192 -425 192 -448 0 -6 -41 0 -130 19 -392 83 -417
86 -840 94 -315 5 -352 8 -325 20 55 26 389 26 590 1 94 -11 214 -25 268 -30
54 -5 114 -12 133 -16 53 -10 114 20 114 56 0 60 -100 290 -188 433 -109 178
-209 257 -385 307 -214 59 -595 89 -911 71 -563 -32 -774 -83 -853 -203 -27
-41 -28 -44 -27 -187 1 -264 68 -497 154 -543 42 -22 118 -23 203 -3 89 20
436 82 542 96 62 8 100 9 120 2 30 -10 30 -10 -20 -21 -27 -6 -88 -16 -135
-22 -199 -28 -397 -63 -512 -91 -153 -38 -192 -35 -248 21 -31 31 -44 57 -64
122 -78 263 -106 506 -70 611 28 81 119 144 263 182 33 8 163 27 288 42 422
49 983 32 1258 -37 228 -57 357 -182 516 -501 54 -109 99 -233 99 -276 0 -16
-11 -41 -25 -58 l-26 -29 22 -8 c31 -12 67 14 74 55 14 75 -72 286 -215 529
-91 152 -173 237 -283 292 -202 99 -719 147 -1227 112 -632 -43 -784 -110
-816 -361 -15 -121 71 -570 126 -660 63 -102 141 -133 255 -101 28 7 77 21
110 30 170 47 548 98 873 117 301 18 548 8 877 -35 80 -11 145 -28 145 -38 0
-5 -6 -8 -14 -5 -26 10 -336 41 -343 34 -14 -14 9 -19 159 -33 623 -58 961
-159 1265 -381 285 -206 485 -555 549 -953 26 -157 29 -378 9 -512 l-17 -115
-85 -12 c-47 -7 -88 -10 -90 -7 -3 3 -1 18 5 33 69 178 90 447 53 673 -67 409
-310 772 -654 979 -65 39 -216 106 -223 98 -3 -2 30 -22 73 -44 246 -128 397
-255 537 -456 110 -158 187 -345 231 -562 21 -103 24 -344 6 -445 -15 -88 -65
-248 -83 -272 -8 -10 -36 -18 -73 -22 l-60 -6 -2 47 c-2 53 -35 168 -63 224
-24 46 -79 99 -104 99 -53 0 -71 -61 -37 -128 10 -20 33 -84 51 -141 33 -108
32 -120 -11 -121 -9 0 -36 -3 -61 -6 l-45 -6 -6 123 c-17 391 -204 834 -499
1187 -346 413 -1030 703 -1574 668 -243 -16 -604 -97 -604 -136 0 -12 52 -34
100 -43 59 -12 328 -102 465 -156 451 -180 858 -459 1174 -805 105 -115 309
-364 431 -526 126 -169 246 -307 273 -314 34 -9 18 -13 -80 -20 l-92 -7 -14
33 c-19 43 -51 76 -83 84 -44 11 -114 -2 -140 -27 -13 -12 -26 -21 -27 -18 -6
7 -191 250 -318 419 -201 267 -437 495 -674 651 -150 99 -444 243 -611 298
-216 72 -542 150 -799 191 -110 17 -108 16 -101 62 24 147 143 215 501 287
195 39 382 66 635 91 112 11 188 19 207 22 7 1 9 6 6 11 -7 12 -316 2 -408
-12 -33 -5 -100 -15 -150 -21 -49 -6 -146 -22 -215 -36 -471 -93 -588 -153
-623 -320 -11 -51 -13 -54 -42 -54 -16 0 -36 4 -42 8 -8 5 -17 53 -23 128 -14
164 -25 257 -65 542 -39 272 -73 423 -112 495 -61 111 -189 190 -373 228 -91
20 -137 23 -345 23 -208 0 -256 -3 -357 -22 -65 -12 -140 -31 -168 -42 -27
-11 -50 -16 -50 -11 0 29 244 144 427 200 277 87 663 146 1108 171 179 10 679
9 800 -1z m-1535 -379 c243 -30 402 -114 462 -243 42 -90 76 -263 124 -644 38
-304 43 -351 44 -396 l0 -48 -32 6 c-72 12 -655 75 -838 90 -266 22 -481 42
-485 47 -2 1 5 46 15 98 10 52 30 176 45 275 80 536 141 774 205 801 52 22
326 30 460 14z m-561 -47 c-37 -94 -91 -354 -140 -673 -17 -113 -41 -263 -53
-335 l-21 -130 -55 2 c-331 9 -499 6 -567 -11 -40 -10 -75 -22 -78 -27 -4 -5
-3 -9 2 -9 4 0 150 -3 323 -6 376 -6 361 -5 356 -24 -3 -8 -13 -60 -23 -115
-16 -87 -18 -157 -17 -540 0 -403 6 -557 37 -921 2 -23 6 -23 -177 22 -76 19
-147 34 -157 34 -10 0 -20 4 -23 9 -3 4 -13 87 -21 182 -67 744 -227 1260
-409 1322 -12 4 88 311 153 473 158 392 360 653 552 711 98 29 243 61 286 62
42 1 42 1 32 -26z m3042 -108 c114 -24 125 -33 144 -117 19 -84 75 -419 75
-449 0 -22 -18 -21 -75 8 -60 30 -143 44 -298 50 -87 3 -160 9 -162 14 -8 12
-55 398 -55 447 0 39 3 44 33 58 39 18 229 12 338 -11z m-623 -54 c9 -5 28
-108 55 -300 44 -315 44 -310 -10 -311 -18 0 -23 6 -23 28 0 55 -32 72 -138
72 -54 0 -97 6 -138 21 -48 17 -80 20 -174 19 -63 0 -144 -5 -180 -9 -36 -5
-67 -7 -70 -4 -6 5 53 112 108 197 90 137 211 234 342 273 76 22 203 30 228
14z m885 -41 c39 -31 119 -137 169 -226 48 -82 128 -265 128 -290 0 -24 -91
-19 -237 12 -28 5 -36 33 -67 244 -45 304 -45 301 7 260z m-335 -461 c53 -6
104 -16 112 -21 10 -6 -4 -7 -40 -4 -30 3 -143 6 -250 6 -174 1 -193 2 -176
15 25 19 211 20 354 4z m-853 -19 c3 -5 0 -10 -7 -10 -7 0 -23 -3 -35 -6 -13
-4 -23 -2 -23 4 0 18 55 28 65 12z m-255 -19 c-8 -5 -55 -16 -105 -25 -49 -10
-122 -26 -161 -38 -39 -11 -80 -18 -90 -16 -35 6 54 50 140 69 84 18 243 25
216 10z m817 -281 c220 -15 400 -58 623 -147 310 -124 571 -307 756 -529 197
-237 376 -611 438 -915 21 -105 36 -245 31 -299 -2 -25 -4 -48 -4 -52 -1 -5
-30 -8 -65 -8 l-64 0 -69 65 c-75 68 -77 71 -375 445 -381 478 -591 676 -963
907 -286 178 -692 349 -990 416 -33 7 -60 18 -60 22 0 18 452 99 575 104 14 0
89 -4 167 -9z m-2567 -245 c146 -13 308 -29 360 -35 52 -5 158 -17 235 -25
190 -19 457 -54 462 -59 3 -3 0 -60 -7 -128 -23 -248 -31 -399 -35 -678 l-3
-285 -45 -150 c-44 -146 -84 -306 -107 -431 -7 -34 -15 -66 -19 -71 -6 -10
-155 25 -884 206 l-269 66 -3 45 c-2 25 -8 146 -14 270 -6 124 -13 257 -16
295 -13 172 -4 729 12 745 3 3 59 5 126 6 155 1 196 16 197 71 0 32 -45 52
-143 64 -155 20 -147 18 -147 44 0 29 17 75 27 75 5 0 127 -11 273 -25z
m-1124 -74 c157 -96 294 -618 349 -1332 l7 -86 -43 -24 c-55 -31 -80 -66 -86
-123 -7 -56 -14 -62 -40 -33 -33 35 -56 129 -94 377 -62 408 -156 672 -290
814 l-57 61 -61 0 c-57 0 -62 -2 -101 -40 -85 -82 -153 -282 -190 -559 -10
-82 -22 -152 -26 -155 -11 -10 5 238 21 334 74 421 217 672 432 761 71 29 137
31 179 5z m962 -73 c34 -5 62 -14 62 -19 0 -14 -67 -16 -162 -4 -49 5 -58 9
-58 27 0 22 4 22 158 -4z m1363 12 c30 -5 99 -17 154 -25 308 -49 743 -153
879 -211 80 -34 80 -34 31 -27 -27 5 -111 8 -185 7 -452 -3 -759 -199 -978
-624 l-44 -85 6 270 c6 329 31 663 52 696 7 11 18 11 85 -1z m3918 -239 c131
-33 200 -58 269 -98 63 -37 172 -115 172 -124 0 -3 -24 -9 -54 -12 -140 -14
-218 -110 -232 -282 -14 -172 81 -389 210 -482 l30 -21 -26 -30 c-14 -17 -32
-54 -39 -82 -15 -57 -24 -65 -89 -75 -25 -3 -52 -8 -61 -11 -12 -3 -26 21 -58
103 -52 134 -50 124 -66 318 -16 184 -44 341 -82 452 -33 99 -107 267 -138
315 -14 21 -25 42 -25 48 0 18 69 11 189 -19z m-2749 -109 c47 -11 114 -30
150 -42 78 -26 256 -125 328 -183 l52 -42 -72 -6 c-148 -11 -246 -99 -293
-264 -34 -115 -9 -296 58 -430 35 -71 119 -167 181 -207 71 -45 169 -78 237
-78 149 0 277 120 309 290 12 63 12 188 1 248 -5 23 -5 42 -1 42 14 0 127
-175 165 -255 51 -110 125 -336 111 -340 -6 -2 -149 -13 -318 -24 -201 -13
-319 -26 -342 -35 -66 -28 -112 -80 -147 -171 -30 -77 -36 -85 -60 -85 -39 0
-118 -26 -141 -47 -11 -9 -26 -32 -33 -50 -8 -18 -18 -33 -24 -33 -16 0 -103
74 -153 129 -81 90 -136 192 -229 423 -150 372 -234 521 -366 650 -115 112
-217 148 -319 114 -216 -72 -351 -346 -419 -851 -45 -337 -65 -435 -93 -467
-19 -23 -64 -23 -85 0 -14 15 -14 28 -2 127 49 389 155 778 283 1030 37 75
125 203 182 267 60 68 190 168 269 207 69 35 196 77 287 96 99 21 371 13 484
-13z m3253 -197 c96 -45 191 -169 223 -289 34 -127 8 -280 -58 -343 -47 -44
-72 -54 -131 -54 -139 0 -288 158 -327 346 -32 154 32 322 136 355 41 13 113
6 157 -15z m-6902 -16 c28 -20 94 -144 105 -199 l6 -34 -34 37 c-20 20 -52 44
-72 52 -31 13 -40 13 -70 1 -98 -41 -176 -261 -176 -494 0 -154 45 -372 96
-474 38 -75 93 -147 125 -163 46 -24 112 -19 149 11 56 47 98 157 115 299 7
54 9 57 16 31 5 -16 23 -58 40 -92 l32 -63 -22 -78 c-42 -146 -113 -259 -178
-284 -135 -51 -280 95 -357 362 -63 219 -73 594 -22 794 52 199 143 339 206
317 8 -3 27 -13 41 -23z m4233 -133 c30 -13 78 -42 108 -64 147 -110 210 -234
212 -417 1 -115 -11 -164 -58 -232 -61 -90 -161 -130 -275 -112 -250 39 -438
397 -344 653 27 74 105 153 173 176 74 26 119 25 184 -4z m-4220 -67 c32 -25
33 -39 2 -39 -69 0 -137 -98 -167 -242 -34 -168 -23 -327 36 -490 34 -96 65
-146 114 -191 33 -30 49 -37 81 -37 46 0 51 -11 15 -30 -62 -33 -110 -9 -170
85 -96 151 -148 446 -115 650 22 140 76 256 136 296 36 23 36 23 68 -2z m-554
-136 c-1 -71 -2 -76 -15 -59 -15 20 -21 117 -8 129 17 18 23 1 23 -70z m640
-10 c102 -125 140 -579 62 -743 -34 -70 -105 -63 -149 15 -28 49 -28 55 -4 55
55 0 98 79 111 203 15 154 -22 321 -86 385 -38 38 -56 40 -84 10 -30 -33 -24
-9 12 44 53 78 92 86 138 31z m7171 -299 c17 -64 29 -118 26 -120 -5 -5 -215
-51 -279 -61 -33 -5 -38 -3 -53 27 -22 43 -15 55 40 69 93 23 170 128 183 250
l5 56 24 -53 c12 -29 37 -105 54 -168z m-7260 169 c8 -10 25 -40 39 -67 19
-41 24 -70 28 -171 5 -129 -3 -173 -39 -219 -43 -55 -78 -23 -110 101 -34 136
-19 304 33 353 27 24 31 25 49 3z m2978 -14 c64 -14 161 -88 219 -165 57 -77
126 -210 176 -339 19 -49 48 -125 65 -167 53 -131 64 -203 65 -398 0 -194 -13
-284 -64 -434 -72 -214 -195 -358 -328 -387 -45 -9 -62 -8 -121 10 -120 36
-220 127 -312 281 -123 207 -178 473 -166 804 8 234 41 386 118 546 65 136
134 207 232 241 61 22 59 21 116 8z m2868 -167 c17 -11 69 -119 87 -182 23
-84 24 -124 4 -128 -12 -2 -18 3 -18 15 0 10 -6 29 -13 43 -7 14 -19 48 -27
75 -7 28 -24 74 -36 103 -32 71 -31 96 3 74z m627 -151 c14 -36 26 -72 26 -82
0 -17 -27 -29 -69 -29 -18 0 -22 4 -16 18 3 9 9 40 11 67 6 60 14 99 18 94 2
-2 16 -33 30 -68z m411 20 c45 -70 59 -158 59 -376 1 -224 -5 -255 -59 -307
-30 -28 -72 -48 -63 -30 48 90 50 100 51 286 1 236 -19 324 -80 347 -25 9 -30
37 -12 72 33 64 66 67 104 8z m-2051 23 c3 -8 2 -12 -4 -9 -6 3 -10 10 -10 16
0 14 7 11 14 -7z m60 -93 c23 -32 60 -86 83 -119 45 -64 44 -72 -15 -72 -25 0
-30 8 -68 108 -69 177 -69 182 0 83z m2503 17 c11 -13 25 -39 32 -58 14 -47
29 -180 20 -180 -16 0 -49 53 -55 89 -4 20 -15 55 -26 79 -23 52 -35 53 -192
17 -61 -13 -129 -27 -153 -31 -39 -6 -43 -4 -43 14 0 22 -1 22 210 61 193 36
182 36 207 9z m-6688 -143 c241 -79 698 -222 1126 -350 105 -32 198 -64 208
-73 22 -20 22 -49 -1 -57 -35 -10 -1396 419 -1532 484 -42 20 -66 27 -71 20
-4 -8 -8 -8 -13 -1 -9 15 4 62 17 62 5 0 125 -38 266 -85z m6074 37 c9 -10 23
-43 31 -74 16 -61 19 -191 5 -182 -5 3 -9 12 -9 19 0 8 -9 32 -21 55 -15 29
-20 53 -17 90 4 61 23 59 -238 20 -225 -33 -305 -43 -804 -100 -195 -22 -365
-43 -377 -45 -21 -5 -23 -2 -23 34 l0 39 78 7 c503 43 1054 107 1242 144 75
15 115 13 133 -7z m492 -28 c17 -41 14 -49 -17 -57 -13 -3 -75 -19 -138 -35
-63 -17 -115 -30 -116 -29 -1 1 -4 26 -8 55 -6 49 -6 52 16 53 13 0 64 11 113
24 127 32 132 32 150 -11z m-2043 -30 c34 -58 50 -177 51 -389 2 -200 2 -200
-26 -256 -27 -56 -44 -69 -94 -69 l-22 0 21 58 c17 47 21 89 25 247 7 235 -5
325 -48 368 -47 47 -32 80 35 75 33 -2 43 -9 58 -34z m1452 -74 c17 -57 18
-64 11 -58 -5 4 -13 4 -19 -1 -6 -4 -23 -11 -38 -15 -26 -6 -28 -4 -28 23 0
16 -4 33 -10 36 -17 10 -11 23 13 28 50 10 66 7 71 -13z m704 -19 c21 -18 32
-36 30 -47 -7 -38 -118 -89 -295 -133 -128 -33 -124 -35 -121 56 l3 77 75 13
c41 7 113 24 160 37 107 31 108 31 148 -3z m-844 -20 c12 -21 15 -36 9 -42 -6
-6 -55 -17 -109 -25 -54 -8 -107 -17 -116 -20 -10 -3 -18 0 -18 5 0 17 43 80
60 87 21 10 133 32 145 30 5 -2 18 -17 29 -35z m-1447 16 c1 -1 4 -14 8 -28 6
-23 3 -27 -22 -32 -29 -5 -361 -29 -650 -46 -191 -11 -206 -18 -254 -113 -27
-53 -33 -59 -57 -56 -22 2 -26 7 -24 28 11 80 81 174 142 190 19 5 118 14 220
20 236 13 448 29 525 40 49 6 103 5 112 -3z m-4284 -56 c84 -27 184 -58 222
-70 39 -11 76 -24 82 -29 7 -4 -97 -16 -232 -27 -135 -10 -247 -16 -250 -13
-6 5 17 188 23 188 2 0 72 -22 155 -49z m5462 12 c-37 -62 -40 -64 -137 -78
-166 -25 -709 -85 -770 -85 -26 0 -28 3 -28 39 0 27 5 41 16 45 9 3 120 18
248 31 127 14 284 32 349 40 66 8 149 18 185 21 37 4 69 8 71 10 2 2 22 4 43
4 l39 0 -16 -27z m495 -99 c28 -65 26 -82 -14 -99 -69 -29 -438 -87 -786 -125
-107 -11 -251 -27 -320 -35 -69 -8 -164 -17 -212 -21 l-88 -7 0 82 c0 58 4 81
13 81 22 0 502 50 527 55 14 3 88 12 165 20 136 15 183 22 500 70 208 31 191
33 215 -21z m-1710 32 c0 -14 -14 -36 -22 -36 -5 0 -6 5 -2 11 3 6 0 15 -7 20
-10 6 -8 9 9 9 12 0 22 -2 22 -4z m74 -22 c9 -36 5 -175 -5 -168 -21 13 -41
157 -25 182 12 19 23 14 30 -14z m2299 -5 c-38 -65 -107 -98 -320 -155 -67
-17 -124 -30 -126 -28 -2 3 -2 16 1 29 4 25 7 27 117 54 198 50 325 98 325
123 0 4 5 8 11 8 5 0 2 -14 -8 -31z m-2475 -25 c20 -43 2 -62 -70 -68 -254
-23 -659 -47 -668 -40 -7 8 27 58 53 77 24 19 75 24 427 46 244 15 245 15 258
-15z m124 -174 c34 -68 35 -97 6 -110 -13 -5 -158 -17 -323 -26 -355 -20 -621
-15 -730 13 -101 26 -132 16 -79 -26 72 -56 343 -70 867 -42 283 15 309 13
269 -27 -13 -13 -40 -22 -83 -26 -128 -15 -508 -23 -715 -15 -216 8 -322 24
-370 55 -26 18 -64 82 -64 109 0 30 31 76 58 87 15 6 121 12 247 14 189 2 427
16 750 43 141 12 136 13 167 -49z m1726 13 c-3 -25 -9 -29 -78 -45 -81 -19
-382 -69 -520 -87 -464 -61 -778 -94 -842 -89 -47 3 -47 3 -35 28 12 24 19 25
267 52 140 15 341 37 445 48 185 20 534 75 665 104 97 21 102 21 98 -11z
m-1016 -260 c18 -20 157 -224 175 -256 7 -12 10 -23 8 -25 -2 -2 -79 10 -172
26 -199 37 -399 68 -733 117 -246 36 -327 52 -316 62 3 3 61 9 128 14 110 7
127 5 165 -12 29 -13 64 -19 112 -19 64 0 73 3 105 31 38 33 6 28 371 64 72 7
133 13 136 14 3 0 13 -7 21 -16z"/>
<path d="M5774 6509 c-3 -5 8 -11 23 -15 84 -19 321 -89 403 -120 259 -97 523
-259 720 -441 215 -199 449 -582 551 -900 13 -42 29 -73 36 -73 18 0 16 18 -8
113 -62 244 -256 601 -437 803 -243 273 -669 513 -1072 604 -117 27 -209 39
-216 29z"/>
<path d="M3054 7330 c-71 -22 -86 -59 -144 -355 -37 -191 -47 -248 -71 -430
-12 -94 1 -152 39 -171 28 -14 137 -25 554 -59 378 -31 429 -31 483 -5 65 31
80 67 78 181 -3 106 -33 326 -64 461 -21 89 -69 179 -120 224 -34 30 -87 59
-94 52 -7 -7 -17 -108 -40 -383 -8 -99 -19 -218 -25 -265 -5 -47 -12 -113 -16
-147 -4 -46 -10 -63 -20 -63 -16 0 -16 -1 7 215 5 50 18 212 30 360 11 149 24
272 30 273 41 15 -49 69 -163 98 -74 18 -416 29 -464 14z m312 -231 c112 -10
209 -30 226 -47 9 -9 -8 -285 -21 -337 l-7 -30 -195 -1 c-107 0 -245 -4 -307
-9 l-113 -8 5 24 c3 13 12 67 21 119 26 146 55 284 63 292 17 16 138 15 328
-3z m390 -246 c-4 -52 -13 -109 -21 -126 -14 -30 -15 -24 -10 86 6 126 11 151
27 141 7 -5 8 -40 4 -101z"/>
<path d="M2619 7294 c-111 -34 -300 -192 -388 -325 -57 -85 -154 -287 -180
-373 -27 -87 -27 -162 -1 -196 l19 -25 264 0 c244 0 267 1 285 18 24 21 33 62
62 250 11 72 38 234 61 359 47 254 46 277 -13 297 -39 14 -52 13 -109 -5z m61
-271 c0 -10 -14 -100 -32 -201 -28 -163 -34 -183 -52 -187 -29 -7 -242 -25
-294 -25 -29 0 -44 5 -48 15 -12 29 78 166 166 255 113 114 260 194 260 143z"/>
<path d="M8484 5440 c-38 -15 -82 -76 -93 -130 -22 -102 -7 -189 53 -309 74
-145 194 -197 297 -128 49 32 72 87 77 183 3 64 0 98 -16 151 -49 159 -209
277 -318 233z m110 -50 c14 -5 47 -29 73 -52 107 -99 144 -288 76 -394 -34
-53 -129 -56 -192 -6 -21 17 -52 60 -76 106 -33 66 -40 90 -43 151 -5 88 10
140 51 177 31 30 67 35 111 18z"/>
<path d="M8627 5107 c-15 -28 -16 -38 -6 -60 19 -41 36 -33 42 20 8 77 -7 94
-36 40z"/>
<path d="M8540 5093 c0 -5 4 -14 9 -22 6 -9 5 -21 -2 -32 -9 -15 -8 -26 8 -55
10 -19 28 -40 38 -46 14 -7 18 -7 12 2 -4 6 -9 39 -11 72 -3 34 -9 68 -15 75
-12 14 -39 18 -39 6z"/>
<path d="M8520 5055 c7 -9 15 -13 17 -11 7 7 -7 26 -19 26 -6 0 -6 -6 2 -15z"/>
<path d="M5784 5267 c-91 -44 -134 -128 -134 -262 0 -268 233 -507 416 -426
66 30 101 65 135 136 25 51 29 72 29 143 0 222 -152 411 -343 428 -41 4 -63 0
-103 -19z m230 -80 c102 -68 165 -189 167 -320 1 -57 -4 -78 -29 -130 -40 -81
-79 -110 -153 -115 -47 -4 -64 0 -100 21 -125 73 -221 259 -204 392 18 134 85
199 201 193 52 -3 71 -10 118 -41z"/>
<path d="M5860 4898 c-6 -94 8 -158 36 -158 8 0 17 0 22 -1 4 -1 6 14 4 32 -2
31 -1 32 11 16 9 -10 21 -15 31 -11 12 5 15 19 13 73 -4 72 -10 91 -32 91 -17
0 -28 -33 -20 -59 3 -11 2 -22 -3 -25 -5 -3 -12 8 -16 26 -6 31 -22 58 -36 58
-4 0 -8 -19 -10 -42z"/>
<path d="M5790 4847 c0 -52 31 -113 72 -141 26 -19 51 -21 27 -3 -8 7 -28 46
-44 87 -15 41 -34 82 -41 90 -12 12 -14 7 -14 -33z"/>
<path d="M6026 4875 c-3 -9 0 -15 9 -15 8 0 15 7 15 15 0 8 -4 15 -9 15 -5 0
-11 -7 -15 -15z"/>
<path d="M4617 4756 c-120 -43 -209 -190 -258 -429 -18 -89 -20 -125 -16 -282
5 -158 9 -194 36 -300 72 -279 206 -447 368 -462 247 -22 410 341 364 808 -29
302 -168 591 -316 660 -47 22 -124 24 -178 5z m158 -65 c34 -16 115 -83 115
-95 0 -2 -30 9 -67 25 -87 36 -125 36 -189 -1 -64 -36 -99 -77 -136 -158 -38
-83 -55 -161 -68 -310 -40 -467 211 -868 461 -739 49 26 52 26 34 6 -11 -12
-38 -35 -59 -50 -32 -24 -49 -29 -95 -29 -74 1 -126 25 -182 88 -124 137 -202
392 -202 657 0 189 32 342 98 463 75 137 185 192 290 143z m64 -135 c74 -39
155 -165 190 -298 46 -171 53 -425 16 -548 -34 -111 -95 -196 -168 -237 -30
-17 -122 -16 -156 1 -56 29 -133 137 -155 216 -6 21 -1 17 29 -18 85 -99 189
-109 266 -25 65 69 89 160 89 328 0 155 -17 243 -65 342 -40 81 -86 126 -146
144 -38 12 -45 11 -88 -12 -26 -13 -61 -44 -81 -71 -19 -26 -36 -45 -38 -43
-7 7 46 113 74 151 45 59 91 84 152 84 29 0 65 -6 81 -14z m-78 -169 c47 -31
91 -100 119 -188 22 -65 25 -91 24 -209 -1 -111 -5 -146 -23 -194 -27 -75 -64
-124 -108 -143 -32 -13 -37 -12 -78 11 -48 29 -95 95 -118 171 -21 66 -26 94
-34 191 -11 151 45 318 122 361 50 28 54 28 96 0z"/>
<path d="M4600 4016 c-14 -37 -13 -52 5 -86 17 -34 45 -31 45 5 0 25 -19 86
-31 99 -5 5 -13 -3 -19 -18z"/>
<path d="M1072 4173 c-12 -2 -20 -8 -18 -12 7 -10 66 -1 66 10 0 9 -8 10 -48
2z"/>
<path d="M1170 4134 l-35 -14 35 5 c19 3 53 10 75 14 l40 8 -40 1 c-22 0 -56
-6 -75 -14z"/>
<path d="M1775 3762 c11 -11 223 -87 270 -96 49 -10 -46 31 -155 66 -52 17
-102 33 -110 36 -10 3 -12 2 -5 -6z"/>
<path d="M2050 3746 c0 -4 17 -14 38 -23 53 -22 389 -139 502 -174 52 -17 101
-32 108 -34 6 -2 12 0 12 5 0 4 -17 14 -37 20 -21 7 -123 43 -228 80 -104 38
-230 81 -280 96 -49 15 -96 29 -102 32 -7 2 -13 1 -13 -2z"/>
<path d="M2400 3515 c0 -5 157 -55 173 -55 23 1 -25 22 -91 41 -70 20 -82 22
-82 14z"/>
<path d="M3410 3306 c0 -6 173 -75 295 -116 61 -21 169 -59 240 -85 180 -65
247 -85 243 -73 -2 6 -26 19 -53 29 -147 57 -700 249 -717 249 -4 0 -8 -2 -8
-4z"/>
<path d="M8675 3283 c-11 -3 -67 -20 -125 -38 -58 -18 -120 -36 -137 -40 -44
-9 -54 -27 -11 -20 63 10 328 88 328 97 0 8 -22 9 -55 1z"/>
<path d="M8733 3207 c-39 -15 -58 -32 -23 -22 30 9 79 34 65 34 -5 0 -24 -6
-42 -12z"/>
<path d="M3970 3018 c64 -28 130 -50 141 -46 12 4 -151 68 -171 67 -8 0 5 -9
30 -21z"/>
<path d="M6575 2862 c-56 -4 -148 -23 -142 -29 7 -7 225 17 251 27 21 9 -17 9
-109 2z"/>
<path d="M5500 2811 c0 -4 11 -6 25 -3 14 2 25 6 25 8 0 2 -11 4 -25 4 -14 0
-25 -4 -25 -9z"/>
<path d="M6245 2790 c-13 -6 -15 -9 -5 -9 8 0 22 4 30 9 18 12 2 12 -25 0z"/>
</g>
</svg>
